<?xml version="1.0" encoding="UTF-8"?>
<svg id="Layer_2" data-name="Layer 2" xmlns="http://www.w3.org/2000/svg" viewBox="0 0 786.82 714.15">
  <defs>
    <style>
      .cls-1 {
        fill: #fff;
      }
    </style>
  </defs>
  <g id="Layer_1-2" data-name="Layer 1">
    <g>
      <path class="cls-1" d="M278.16,250.87v211.96c0,25.07,13.5,48.2,35.32,60.53l25.98,14.68c9.18,5.19,14.86,14.92,14.86,25.46h0c0,10.95-6.12,20.99-15.86,26l-60.3,31.05-150.03,77.3c-20.77,10.7-43.8,16.29-67.17,16.29h0c-33.67,0-60.96-27.29-60.96-60.96V69.95C0,31.32,31.32,0,69.95,0h0c17.58,0,34.91,4.2,50.54,12.25l157.67,81.22,60.8,31.33c9.43,4.86,15.36,14.59,15.36,25.2h0c0,10.22-5.5,19.65-14.4,24.68l-25.8,14.58c-22.22,12.56-35.96,36.1-35.96,61.62Z"/>
      <path class="cls-1" d="M508.67,250.87v211.96c0,25.07-13.5,48.2-35.32,60.53l-25.98,14.68c-9.18,5.19-14.86,14.92-14.86,25.46h0c0,10.95,6.12,20.99,15.86,26l60.3,31.05,150.03,77.3c20.77,10.7,43.8,16.29,67.17,16.29h0c33.67,0,60.96-27.29,60.96-60.96V69.95c0-38.63-31.32-69.95-69.95-69.95h0c-17.58,0-34.91,4.2-50.54,12.25l-157.67,81.22-60.8,31.33c-9.43,4.86-15.36,14.59-15.36,25.2h0c0,10.22,5.5,19.65,14.4,24.68l25.8,14.58c22.22,12.56,35.96,36.1,35.96,61.62Z"/>
    </g>
  </g>
</svg>