<?xml version="1.0" encoding="UTF-8"?>
<svg id="Layer_2" data-name="Layer 2" xmlns="http://www.w3.org/2000/svg" viewBox="0 0 22.04 20" width="20" height="18.15">
  <defs>
    <style>
      .cls-1 {
        fill: #fff;
      }
    </style>
  </defs>
  <g id="Layer_1-2" data-name="Layer 1">
    <g>
      <path class="cls-1" d="M7.79,7.03v5.94c0,.7.38,1.35.99,1.7l.73.41c.26.15.42.42.42.71h0c0,.31-.17.59-.44.73l-1.69.87-4.2,2.16c-.58.3-1.23.46-1.88.46h0c-.94,0-1.71-.76-1.71-1.71V1.96C0,.88.88,0,1.96,0h0c.49,0,.98.12,1.42.34l4.42,2.27,1.7.88c.26.14.43.41.43.71h0c0,.29-.15.55-.4.69l-.72.41c-.62.35-1.01,1.01-1.01,1.73Z"/>
      <path class="cls-1" d="M14.25,7.03v5.94c0,.7-.38,1.35-.99,1.7l-.73.41c-.26.15-.42.42-.42.71h0c0,.31.17.59.44.73l1.69.87,4.2,2.16c.58.3,1.23.46,1.88.46h0c.94,0,1.71-.76,1.71-1.71V1.96c0-1.08-.88-1.96-1.96-1.96h0c-.49,0-.98.12-1.42.34l-4.42,2.27-1.7.88c-.26.14-.43.41-.43.71h0c0,.29.15.55.4.69l.72.41c.62.35,1.01,1.01,1.01,1.73Z"/>
    </g>
  </g>
</svg>